<svg width="92" height="12" viewBox="0 0 92 12" fill="none" xmlns="http://www.w3.org/2000/svg">
<path d="M0.792 9V0.599999H3.732L5.184 7.92H5.4L6.852 0.599999H9.792V9H8.256V1.764H8.04L6.6 9H3.984L2.544 1.764H2.328V9H0.792ZM13.27 9.168C12.846 9.168 12.466 9.096 12.13 8.952C11.794 8.8 11.526 8.584 11.326 8.304C11.134 8.016 11.038 7.668 11.038 7.26C11.038 6.852 11.134 6.512 11.326 6.24C11.526 5.96 11.798 5.752 12.142 5.616C12.494 5.472 12.894 5.4 13.342 5.4H14.974V5.064C14.974 4.784 14.886 4.556 14.71 4.38C14.534 4.196 14.254 4.104 13.87 4.104C13.494 4.104 13.214 4.192 13.03 4.368C12.846 4.536 12.726 4.756 12.67 5.028L11.278 4.56C11.374 4.256 11.526 3.98 11.734 3.732C11.95 3.476 12.234 3.272 12.586 3.12C12.946 2.96 13.382 2.88 13.894 2.88C14.678 2.88 15.298 3.076 15.754 3.468C16.21 3.86 16.438 4.428 16.438 5.172V7.392C16.438 7.632 16.55 7.752 16.774 7.752H17.254V9H16.246C15.95 9 15.706 8.928 15.514 8.784C15.322 8.64 15.226 8.448 15.226 8.208V8.196H14.998C14.966 8.292 14.894 8.42 14.782 8.58C14.67 8.732 14.494 8.868 14.254 8.988C14.014 9.108 13.686 9.168 13.27 9.168ZM13.534 7.944C13.958 7.944 14.302 7.828 14.566 7.596C14.838 7.356 14.974 7.04 14.974 6.648V6.528H13.45C13.17 6.528 12.95 6.588 12.79 6.708C12.63 6.828 12.55 6.996 12.55 7.212C12.55 7.428 12.634 7.604 12.802 7.74C12.97 7.876 13.214 7.944 13.534 7.944ZM18.3595 9V3.048H19.8475V3.828H20.0635C20.1595 3.62 20.3395 3.424 20.6035 3.24C20.8675 3.048 21.2675 2.952 21.8035 2.952C22.2675 2.952 22.6715 3.06 23.0155 3.276C23.3675 3.484 23.6395 3.776 23.8315 4.152C24.0235 4.52 24.1195 4.952 24.1195 5.448V9H22.6075V5.568C22.6075 5.12 22.4955 4.784 22.2715 4.56C22.0555 4.336 21.7435 4.224 21.3355 4.224C20.8715 4.224 20.5115 4.38 20.2555 4.692C19.9995 4.996 19.8715 5.424 19.8715 5.976V9H18.3595ZM27.9283 9.096C27.4643 9.096 27.0563 8.992 26.7043 8.784C26.3603 8.568 26.0923 8.272 25.9003 7.896C25.7083 7.52 25.6123 7.088 25.6123 6.6V3.048H27.1243V6.48C27.1243 6.928 27.2323 7.264 27.4483 7.488C27.6723 7.712 27.9883 7.824 28.3963 7.824C28.8603 7.824 29.2203 7.672 29.4763 7.368C29.7323 7.056 29.8603 6.624 29.8603 6.072V3.048H31.3723V9H29.8843V8.22H29.6683C29.5723 8.42 29.3923 8.616 29.1283 8.808C28.8643 9 28.4643 9.096 27.9283 9.096ZM35.5268 9.168C34.7508 9.168 34.1148 9 33.6188 8.664C33.1228 8.328 32.8228 7.848 32.7188 7.224L34.1108 6.864C34.1668 7.144 34.2588 7.364 34.3868 7.524C34.5228 7.684 34.6868 7.8 34.8788 7.872C35.0788 7.936 35.2948 7.968 35.5268 7.968C35.8788 7.968 36.1388 7.908 36.3068 7.788C36.4748 7.66 36.5588 7.504 36.5588 7.32C36.5588 7.136 36.4788 6.996 36.3188 6.9C36.1588 6.796 35.9028 6.712 35.5508 6.648L35.2148 6.588C34.7988 6.508 34.4188 6.4 34.0748 6.264C33.7308 6.12 33.4548 5.924 33.2468 5.676C33.0388 5.428 32.9348 5.108 32.9348 4.716C32.9348 4.124 33.1508 3.672 33.5828 3.36C34.0148 3.04 34.5828 2.88 35.2868 2.88C35.9508 2.88 36.5028 3.028 36.9428 3.324C37.3828 3.62 37.6708 4.008 37.8068 4.488L36.4028 4.92C36.3388 4.616 36.2068 4.4 36.0068 4.272C35.8148 4.144 35.5748 4.08 35.2868 4.08C34.9988 4.08 34.7788 4.132 34.6268 4.236C34.4748 4.332 34.3988 4.468 34.3988 4.644C34.3988 4.836 34.4788 4.98 34.6388 5.076C34.7988 5.164 35.0148 5.232 35.2868 5.28L35.6228 5.34C36.0708 5.42 36.4748 5.528 36.8348 5.664C37.2028 5.792 37.4908 5.98 37.6988 6.228C37.9148 6.468 38.0228 6.796 38.0228 7.212C38.0228 7.836 37.7948 8.32 37.3388 8.664C36.8908 9 36.2868 9.168 35.5268 9.168ZM42.1438 9.168C41.5678 9.168 41.0438 9.048 40.5718 8.808C40.1078 8.568 39.7398 8.22 39.4678 7.764C39.1958 7.308 39.0598 6.756 39.0598 6.108V5.94C39.0598 5.292 39.1958 4.74 39.4678 4.284C39.7398 3.828 40.1078 3.48 40.5718 3.24C41.0438 3 41.5678 2.88 42.1438 2.88C42.7118 2.88 43.1998 2.98 43.6078 3.18C44.0158 3.38 44.3438 3.656 44.5918 4.008C44.8478 4.352 45.0158 4.744 45.0958 5.184L43.6318 5.496C43.5998 5.256 43.5278 5.04 43.4158 4.848C43.3038 4.656 43.1438 4.504 42.9358 4.392C42.7358 4.28 42.4838 4.224 42.1798 4.224C41.8758 4.224 41.5998 4.292 41.3518 4.428C41.1118 4.556 40.9198 4.752 40.7758 5.016C40.6398 5.272 40.5718 5.588 40.5718 5.964V6.084C40.5718 6.46 40.6398 6.78 40.7758 7.044C40.9198 7.3 41.1118 7.496 41.3518 7.632C41.5998 7.76 41.8758 7.824 42.1798 7.824C42.6358 7.824 42.9798 7.708 43.2118 7.476C43.4518 7.236 43.6038 6.924 43.6678 6.54L45.1318 6.888C45.0278 7.312 44.8478 7.7 44.5918 8.052C44.3438 8.396 44.0158 8.668 43.6078 8.868C43.1998 9.068 42.7118 9.168 42.1438 9.168ZM46.3791 9V3.048H47.8671V3.72H48.0831C48.1711 3.48 48.3151 3.304 48.5151 3.192C48.7231 3.08 48.9631 3.024 49.2351 3.024H49.9551V4.368H49.2111C48.8271 4.368 48.5111 4.472 48.2631 4.68C48.0151 4.88 47.8911 5.192 47.8911 5.616V9H46.3791ZM51.1369 9V3.048H52.6489V9H51.1369ZM51.8929 2.352C51.6209 2.352 51.3889 2.264 51.1969 2.088C51.0129 1.912 50.9209 1.68 50.9209 1.392C50.9209 1.104 51.0129 0.872 51.1969 0.696C51.3889 0.52 51.6209 0.431999 51.8929 0.431999C52.1729 0.431999 52.4049 0.52 52.5889 0.696C52.7729 0.872 52.8649 1.104 52.8649 1.392C52.8649 1.68 52.7729 1.912 52.5889 2.088C52.4049 2.264 52.1729 2.352 51.8929 2.352ZM54.3244 11.4V3.048H55.8124V3.768H56.0284C56.1644 3.536 56.3764 3.332 56.6644 3.156C56.9524 2.972 57.3644 2.88 57.9004 2.88C58.3804 2.88 58.8244 3 59.2324 3.24C59.6404 3.472 59.9684 3.816 60.2164 4.272C60.4644 4.728 60.5884 5.28 60.5884 5.928V6.12C60.5884 6.768 60.4644 7.32 60.2164 7.776C59.9684 8.232 59.6404 8.58 59.2324 8.82C58.8244 9.052 58.3804 9.168 57.9004 9.168C57.5404 9.168 57.2364 9.124 56.9884 9.036C56.7484 8.956 56.5524 8.852 56.4004 8.724C56.2564 8.588 56.1404 8.452 56.0524 8.316H55.8364V11.4H54.3244ZM57.4444 7.848C57.9164 7.848 58.3044 7.7 58.6084 7.404C58.9204 7.1 59.0764 6.66 59.0764 6.084V5.964C59.0764 5.388 58.9204 4.952 58.6084 4.656C58.2964 4.352 57.9084 4.2 57.4444 4.2C56.9804 4.2 56.5924 4.352 56.2804 4.656C55.9684 4.952 55.8124 5.388 55.8124 5.964V6.084C55.8124 6.66 55.9684 7.1 56.2804 7.404C56.5924 7.7 56.9804 7.848 57.4444 7.848ZM64.0575 9C63.6655 9 63.3455 8.88 63.0975 8.64C62.8575 8.392 62.7375 8.064 62.7375 7.656V4.296H61.2495V3.048H62.7375V1.2H64.2495V3.048H65.8815V4.296H64.2495V7.392C64.2495 7.632 64.3615 7.752 64.5855 7.752H65.7375V9H64.0575ZM70.3942 9.168C69.3542 9.168 68.5302 8.88 67.9222 8.304C67.3142 7.72 67.0102 6.888 67.0102 5.808V3.792C67.0102 2.712 67.3142 1.884 67.9222 1.308C68.5302 0.724 69.3542 0.431999 70.3942 0.431999C71.4262 0.431999 72.2222 0.716 72.7822 1.284C73.3502 1.844 73.6342 2.616 73.6342 3.6V3.672H72.0742V3.552C72.0742 3.056 71.9342 2.648 71.6542 2.328C71.3822 2.008 70.9622 1.848 70.3942 1.848C69.8342 1.848 69.3942 2.02 69.0742 2.364C68.7542 2.708 68.5942 3.176 68.5942 3.768V5.832C68.5942 6.416 68.7542 6.884 69.0742 7.236C69.3942 7.58 69.8342 7.752 70.3942 7.752C70.9622 7.752 71.3822 7.592 71.6542 7.272C71.9342 6.944 72.0742 6.536 72.0742 6.048V5.832H73.6342V6C73.6342 6.984 73.3502 7.76 72.7822 8.328C72.2222 8.888 71.4262 9.168 70.3942 9.168ZM74.9248 9V0.599999H77.8648L79.3168 7.92H79.5328L80.9848 0.599999H83.9248V9H82.3888V1.764H82.1728L80.7328 9H78.1168L76.6768 1.764H76.4608V9H74.9248ZM88.4228 9.168C87.7748 9.168 87.2028 9.052 86.7068 8.82C86.2108 8.588 85.8228 8.256 85.5428 7.824C85.2628 7.392 85.1228 6.872 85.1228 6.264V5.928H86.6828V6.264C86.6828 6.768 86.8388 7.148 87.1508 7.404C87.4628 7.652 87.8868 7.776 88.4228 7.776C88.9668 7.776 89.3708 7.668 89.6348 7.452C89.9068 7.236 90.0428 6.96 90.0428 6.624C90.0428 6.392 89.9748 6.204 89.8388 6.06C89.7108 5.916 89.5188 5.8 89.2628 5.712C89.0148 5.616 88.7108 5.528 88.3508 5.448L88.0748 5.388C87.4988 5.26 87.0028 5.1 86.5868 4.908C86.1788 4.708 85.8628 4.448 85.6388 4.128C85.4228 3.808 85.3148 3.392 85.3148 2.88C85.3148 2.368 85.4348 1.932 85.6748 1.572C85.9228 1.204 86.2668 0.924 86.7068 0.732C87.1548 0.532 87.6788 0.431999 88.2788 0.431999C88.8788 0.431999 89.4108 0.536 89.8748 0.744C90.3468 0.944 90.7148 1.248 90.9788 1.656C91.2508 2.056 91.3868 2.56 91.3868 3.168V3.528H89.8268V3.168C89.8268 2.848 89.7628 2.592 89.6348 2.4C89.5148 2.2 89.3388 2.056 89.1068 1.968C88.8748 1.872 88.5988 1.824 88.2788 1.824C87.7988 1.824 87.4428 1.916 87.2108 2.1C86.9868 2.276 86.8748 2.52 86.8748 2.832C86.8748 3.04 86.9268 3.216 87.0308 3.36C87.1428 3.504 87.3068 3.624 87.5228 3.72C87.7388 3.816 88.0148 3.9 88.3508 3.972L88.6268 4.032C89.2268 4.16 89.7468 4.324 90.1868 4.524C90.6348 4.724 90.9828 4.988 91.2308 5.316C91.4788 5.644 91.6028 6.064 91.6028 6.576C91.6028 7.088 91.4708 7.54 91.2068 7.932C90.9508 8.316 90.5828 8.62 90.1028 8.844C89.6308 9.06 89.0708 9.168 88.4228 9.168Z" fill="#181818"/>
</svg>
